<svg width="24" height="21" viewBox="0 0 24 21" fill="none" xmlns="http://www.w3.org/2000/svg">
<path d="M10.3524 1.54712C9.91047 1.959 9.47614 2.36325 9.04181 2.7656C7.02447 4.63812 5.00713 6.51255 2.98789 8.3813C2.52498 8.8103 2.04494 9.2222 1.46393 9.4739C0.772431 9.7733 0.376201 9.5864 0.153322 8.8408C-0.157185 7.79776 0.00854582 6.82527 0.608604 5.92905C1.11913 5.16631 1.763 4.53133 2.42402 3.91352C3.47746 2.92959 4.53851 1.95519 5.6129 0.99795C6.08343 0.57845 6.59776 0.19517 7.2264 0.0674096C9.10849 -0.31205 10.3086 1.49183 10.3543 1.54522L10.3524 1.54712Z" fill="#4679FE"/>
<path d="M1.29639 11.0737C2.44126 10.7438 3.30039 10.0173 4.13667 9.2527C6.80359 6.81955 9.46671 4.38451 12.1451 1.96473C12.7356 1.43081 13.3566 0.91978 14.0138 0.47357C14.8501 -0.0946602 15.7588 -0.17666 16.6541 0.36488C16.9779 0.55938 17.2961 0.7863 17.5589 1.05707C18.4714 2.00096 19.3724 2.9601 20.2506 3.9364C21.1841 4.97373 22.1022 6.02631 22.9957 7.09795C23.3024 7.46597 23.5538 7.89501 23.7614 8.3298C24.1482 9.1383 24.0491 9.9372 23.5786 10.6904C23.1576 11.3655 22.5937 11.9185 22.0127 12.4428C19.7382 14.4984 17.4637 16.554 15.1625 18.581C14.5453 19.1263 13.8652 19.6145 13.1642 20.0454C11.8441 20.8596 10.5201 20.7586 9.31622 19.7937C8.6152 19.2331 7.95609 18.6058 7.35412 17.9384C5.41489 15.7893 3.51184 13.6098 1.59546 11.4398C1.49831 11.3311 1.41068 11.2129 1.29639 11.0718V11.0737Z" fill="#4679FE"/>
</svg>
