<svg width="24" height="19" viewBox="0 0 24 19" fill="none" xmlns="http://www.w3.org/2000/svg">
<path fill-rule="evenodd" clip-rule="evenodd" d="M10.9179 16.2196C10.8701 16.3979 11.0044 16.5729 11.1889 16.5729H12.805C12.9895 16.5729 13.1238 16.3979 13.076 16.2196L12.268 13.2041C12.1937 12.9268 11.8002 12.9268 11.7259 13.2041L10.9179 16.2196Z" fill="#0364FF"/>
<path fill-rule="evenodd" clip-rule="evenodd" d="M9.30972 18.15C9.18592 18.6118 8.76742 18.933 8.28932 18.933H6.10192C5.40732 18.933 4.90171 18.2741 5.08152 17.6031L9.56872 0.8564C9.70412 0.35126 10.1619 0 10.6848 0H13.2881C13.811 0 14.2688 0.35126 14.4041 0.8564L18.8914 17.6031C19.0712 18.2741 18.5656 18.933 17.871 18.933H15.6836C15.2055 18.933 14.787 18.6118 14.6632 18.15L12.4807 10.0048C12.3452 9.4991 11.6277 9.4991 11.4922 10.0048L9.30972 18.15Z" fill="#0364FF"/>
<path fill-rule="evenodd" clip-rule="evenodd" d="M20.312 14.9943C20.1721 15.5163 19.4315 15.5163 19.2916 14.9943L17.6625 8.9145C17.631 8.797 17.631 8.6732 17.6625 8.5557L19.7386 0.80746C19.8662 0.33118 20.2979 0 20.7909 0H22.9099C23.6263 0 24.1477 0.67947 23.9623 1.37139L20.312 14.9943ZM6.33472 8.9044C6.36622 8.7868 6.36622 8.6631 6.33472 8.5455L4.26134 0.80746C4.13372 0.33118 3.70211 0 3.20903 0H1.09002C0.373691 0 -0.147678 0.67947 0.0377215 1.37139L3.68525 14.9842C3.82512 15.5062 4.5658 15.5062 4.70567 14.9842L6.33472 8.9044Z" fill="#0364FF"/>
</svg>
