<svg width="23" height="29" viewBox="0 0 23 29" fill="none" xmlns="http://www.w3.org/2000/svg">
<path d="M21.1766 26.8289C21.1766 28.028 16.664 29 11.0973 29C5.53068 29 1.01804 28.028 1.01804 26.8289C1.01804 25.6298 5.53068 24.6578 11.0973 24.6578C16.664 24.6578 21.1766 25.6298 21.1766 26.8289Z" fill="#FF8271"/>
<path fill-rule="evenodd" clip-rule="evenodd" d="M0.319675 17.1676C0.319675 20.6725 3.52163 22.2441 6.65233 22.2539C13.9775 22.2539 22.082 17.7099 22.0398 10.1054C22.0095 4.62285 17.0177 -0.0445324 11.1109 0.000320619C5.49014 0.000320619 0.000371211 3.70401 0 8.74968C0 10.1047 0.770262 11.4155 2.78377 11.5632C1.10493 13.2409 0.319675 15.2511 0.319675 17.1676ZM11.1302 12.2126C12.3044 12.2126 13.2563 11.0583 13.2563 9.63437C13.2563 8.21046 12.3044 7.05615 11.1302 7.05615C9.95603 7.05615 9.00416 8.21046 9.00416 9.63437C9.00416 11.0583 9.95603 12.2126 11.1302 12.2126ZM17.2261 12.2126C18.4003 12.2126 19.3522 11.0583 19.3522 9.63437C19.3522 8.21046 18.4003 7.05616 17.2261 7.05616C16.0519 7.05616 15.1001 8.21046 15.1001 9.63437C15.1001 11.0583 16.0519 12.2126 17.2261 12.2126Z" fill="#FF8271"/>
<path fill-rule="evenodd" clip-rule="evenodd" d="M0.319675 17.1676C0.319675 20.6725 3.52163 22.2441 6.65233 22.2539C13.9775 22.2539 22.082 17.7099 22.0398 10.1054C22.0095 4.62285 17.0177 -0.0445324 11.1109 0.000320619C5.49014 0.000320619 0.000371211 3.70401 0 8.74968C0 10.1047 0.770262 11.4155 2.78377 11.5632C1.10493 13.2409 0.319675 15.2511 0.319675 17.1676ZM11.1302 12.2126C12.3044 12.2126 13.2563 11.0583 13.2563 9.63437C13.2563 8.21046 12.3044 7.05615 11.1302 7.05615C9.95603 7.05615 9.00416 8.21046 9.00416 9.63437C9.00416 11.0583 9.95603 12.2126 11.1302 12.2126ZM17.2261 12.2126C18.4003 12.2126 19.3522 11.0583 19.3522 9.63437C19.3522 8.21046 18.4003 7.05616 17.2261 7.05616C16.0519 7.05616 15.1001 8.21046 15.1001 9.63437C15.1001 11.0583 16.0519 12.2126 17.2261 12.2126Z" fill="#FF8271"/>
</svg>
